# xmcd CD database file generated by LOLA_Freedb v0.9beta0
# 
# Track frame offsets:
#      150
#      11733
#      22118
#      34499
#      47783
#      64066
#      85893
#      100298
#      111403
#      124738
#      140136
#      153237
# 
# Disc length: 2291 seconds
# 
# Revision: 0 
# Processed by: cddbd v1.5.2PL0 Copyright (c) Steve Scherf et al.
# Submitted via: LOLA_Freedb v0.9beta0
# 
DISCID=ab08f10c
DTITLE=Diverse - On The Road Again
DYEAR=1900
DGENRE=
TTITLE0=Dickey Lee - Never Ending Song of Love
TTITLE1=Dave Dudley - Six Days on the Road
TTITLE2=Greahounds - Ring of Fire
TTITLE3=Harry Bonanza and Band - Send me a Postcard
TTITLE4=Early Bird - It's only Temporary
TTITLE5=Go West - Travellin Fever
TTITLE6=
TTITLE7=
TTITLE8=
TTITLE9=
TTITLE10=
TTITLE11=
EXTD=
EXTT0=
EXTT1=
EXTT2=
EXTT3=
EXTT4=
EXTT5=
EXTT6=
EXTT7=
EXTT8=
EXTT9=
EXTT10=
EXTT11=
PLAYORDER=
